<?xml version="1.0" standalone="no"?>
<!DOCTYPE svg PUBLIC "-//W3C//DTD SVG 20010904//EN"
 "http://www.w3.org/TR/2001/REC-SVG-20010904/DTD/svg10.dtd">
<svg version="1.0" xmlns="http://www.w3.org/2000/svg"
 width="362.000000pt" height="63.000000pt" viewBox="0 0 362.000000 63.000000"
 preserveAspectRatio="xMidYMid meet">

<g transform="translate(0.000000,63.000000) scale(0.100000,-0.100000)"
fill="#000000" stroke="none">
<path d="M1240 519 l0 -111 -30 26 c-86 72 -213 24 -249 -93 -29 -99 -4 -234
54 -291 34 -33 41 -35 100 -35 57 0 67 3 94 29 l31 30 0 -27 c0 -24 4 -27 35
-27 l35 0 0 305 0 305 -35 0 -35 0 0 -111z m-52 -132 c43 -35 60 -194 28 -256
-29 -56 -77 -74 -130 -50 -39 18 -60 73 -60 160 0 84 21 134 65 157 26 14 74
9 97 -11z"/>
<path d="M2780 605 c0 -21 5 -25 30 -25 l30 0 0 -255 0 -255 -30 0 c-25 0 -30
-4 -30 -25 l0 -25 125 0 125 0 0 25 c0 21 -5 25 -30 25 l-30 0 0 280 0 280
-95 0 c-95 0 -95 0 -95 -25z"/>
<path d="M3080 605 c0 -21 5 -25 30 -25 l30 0 0 -255 0 -255 -30 0 c-25 0 -30
-4 -30 -25 l0 -25 125 0 125 0 0 25 c0 21 -5 25 -30 25 -30 0 -30 1 -30 53 0
40 5 58 18 70 10 10 21 17 24 17 3 0 29 -30 58 -68 47 -61 50 -67 31 -70 -15
-2 -21 -11 -21 -28 l0 -24 120 0 120 0 0 25 c0 20 -5 25 -24 25 -19 0 -43 24
-112 111 l-86 110 53 49 c44 40 61 49 92 50 33 0 37 3 37 25 l0 26 -92 -3
c-87 -3 -93 -4 -96 -25 -3 -17 3 -22 23 -25 24 -3 20 -8 -50 -70 -42 -38 -80
-68 -86 -68 -5 0 -9 77 -9 190 l0 190 -95 0 c-95 0 -95 0 -95 -25z"/>
<path d="M1940 500 l0 -60 -30 0 c-25 0 -30 -4 -30 -25 0 -21 5 -25 30 -25
l30 0 0 -149 c0 -82 4 -161 10 -176 15 -39 70 -58 153 -53 61 3 72 7 93 31 32
38 32 77 0 77 -18 0 -27 -8 -34 -29 -12 -33 -46 -49 -67 -31 -12 10 -15 45
-15 171 l0 159 55 0 c52 0 55 1 55 25 0 24 -3 25 -55 25 l-55 0 0 60 0 60 -70
0 -70 0 0 -60z"/>
<path d="M175 466 c-5 -2 -22 -7 -37 -10 -75 -17 -131 -109 -131 -216 0 -158
98 -247 249 -226 67 9 84 21 84 61 l0 35 -37 -20 c-72 -38 -161 -19 -198 43
-29 47 -28 174 1 214 45 61 138 79 200 38 32 -21 34 -20 34 18 0 27 -5 36 -27
46 -28 13 -120 24 -138 17z"/>
<path d="M595 458 c-78 -27 -119 -103 -119 -224 0 -107 28 -168 94 -201 59
-30 131 -30 185 0 73 41 110 162 85 281 -25 120 -132 183 -245 144z m128 -76
c31 -27 47 -76 47 -145 0 -123 -65 -192 -150 -157 -48 20 -65 61 -65 162 0 72
3 91 21 115 41 55 102 65 147 25z"/>
<path d="M1565 457 c-86 -34 -125 -92 -133 -196 -13 -193 121 -294 316 -236
50 15 52 17 52 50 0 19 -1 35 -2 35 -2 0 -27 -9 -56 -20 -123 -47 -215 -9
-235 98 l-6 32 154 0 155 0 0 54 c0 68 -12 102 -53 144 -47 49 -126 65 -192
39z m142 -80 c13 -13 26 -40 30 -60 l6 -37 -117 0 c-130 0 -135 4 -96 68 39
63 129 78 177 29z"/>
<path d="M2395 443 c-16 -2 -47 -9 -68 -14 -37 -10 -38 -11 -35 -52 2 -35 7
-43 26 -45 12 -2 22 2 22 8 0 6 11 22 25 35 18 19 35 25 70 25 59 0 95 -32 95
-85 l0 -35 -67 0 c-73 -1 -133 -17 -164 -46 -30 -27 -44 -87 -31 -132 18 -58
52 -85 116 -90 47 -4 62 0 101 22 43 26 45 26 45 6 0 -19 6 -20 100 -20 l100
0 0 25 c0 21 -5 25 -30 25 l-30 0 0 128 c0 150 -12 184 -75 219 -41 22 -142
35 -200 26z m133 -274 c-3 -54 -7 -65 -29 -82 -54 -39 -113 15 -95 87 10 40
33 56 82 56 l45 0 -3 -61z"/>
</g>
</svg>
